<?xml version="1.0" encoding="UTF-8" standalone="no"?>
<!-- Created with Inkscape (http://www.inkscape.org/) -->

<svg
   width="344.28644mm"
   height="133.7997mm"
   viewBox="0 0 344.28644 133.79969"
   version="1.1"
   id="svg1"
   xml:space="preserve"
   sodipodi:docname="layer1.svg"
   xmlns:inkscape="http://www.inkscape.org/namespaces/inkscape"
   xmlns:sodipodi="http://sodipodi.sourceforge.net/DTD/sodipodi-0.dtd"
   xmlns="http://www.w3.org/2000/svg"
   xmlns:svg="http://www.w3.org/2000/svg"><sodipodi:namedview
     id="namedview1"
     pagecolor="#ffffff"
     bordercolor="#000000"
     borderopacity="0.25"
     inkscape:showpageshadow="2"
     inkscape:pageopacity="0.0"
     inkscape:pagecheckerboard="0"
     inkscape:deskcolor="#d1d1d1"
     inkscape:document-units="mm"><inkscape:page
       x="0"
       y="2.617554e-28"
       width="344.28644"
       height="133.7997"
       id="page2"
       margin="0"
       bleed="0" /></sodipodi:namedview><defs
     id="defs1" /><g
     id="layer1"
     transform="translate(55.169966,-82.798415)"
     style="fill:#e6e6e6;fill-opacity:1"
     inkscape:export-filename="layer1.png"
     inkscape:export-xdpi="96"
     inkscape:export-ydpi="96"><path
       style="fill:#e6e6e6;fill-opacity:1"
       d="m 12.738106,216.4943 c -10.2087277,0.47722 -19.9103862,-4.85352 -26.335885,-12.58729 -9.795537,0.38322 -19.756865,0.0349 -29.491197,-1.21887 -9.192828,-1.6573 -12.542207,-11.80897 -11.739049,-20.07076 -0.370065,-9.95738 -1.63508,-21.02925 5.020499,-29.33373 10.710938,-14.66767 29.465668,-19.96976 46.4060487,-23.66032 12.8140077,-2.61859 25.8399973,-4.13575 38.8764013,-5.08719 25.986921,-20.08286 55.85313,-37.201188 89.143666,-40.336414 33.51272,-3.568341 67.21992,0.400914 100.57993,3.859283 7.64503,0.790321 15.19973,-1.508337 22.63975,-1.958878 5.25241,2.427166 0.88214,8.47442 -0.58876,12.146902 -1.40504,3.402607 5.08043,4.248307 7.03283,6.490237 8.58695,5.64326 17.54632,10.92939 25.42033,17.50899 0.57189,6.5925 -0.76169,13.68974 1.01728,19.9625 1.55103,4.09218 7.27389,5.22516 8.39652,9.24448 -0.47663,9.57546 0.67388,19.40018 -0.84571,28.81589 -3.46567,9.58306 -13.39809,15.45214 -22.90968,17.60436 -6.61159,15.04197 -25.65614,23.07063 -40.83549,16.29697 -6.05933,-2.66636 -11.52984,-7.04511 -14.90094,-12.79145 -57.45169,1.09575 -114.912637,1.84441 -172.368383,2.56861 -6.135603,7.27716 -14.823752,12.39761 -24.518161,12.54668 z m -0.132292,-7.92578 c 15.541297,0.33034 27.216135,-17.33253 21.840481,-31.68639 -4.551124,-14.25276 -23.672795,-20.86406 -35.8633403,-11.96772 -12.0879227,7.52954 -14.0542777,26.02066 -4.1890396,36.2063 4.61344815,4.85468 11.4526582,7.99355 18.2118989,7.44781 z m 225.028116,0.0108 c 14.49789,0.0603 25.7905,-15.63792 22.08897,-29.46976 -2.95018,-14.83506 -21.76731,-23.29301 -34.69469,-15.22205 -13.11746,6.7848 -16.70826,26.33338 -6.22838,36.96409 4.63607,5.24809 11.82826,8.29949 18.8341,7.72772 z M -22.120748,196.23421 c 6.688786,1.98057 3.548946,-3.07525 2.591597,-6.97045 -1.434616,-11.99755 3.82613,-24.72824 14.2907274,-31.14147 14.2306235,-9.7912 35.6487526,-4.66606 44.1370706,10.31046 5.318715,8.09875 5.365763,18.70199 2.689867,27.54461 34.88479,-0.0643 70.038886,-1.14463 105.029386,-1.41186 19.74916,-0.41729 39.67396,-0.33641 59.31183,-1.17847 -4.44879,-15.68397 4.91012,-33.56395 20.41753,-38.63925 15.27233,-5.64 33.78672,2.71062 39.51335,17.99518 2.31153,5.06633 2.22835,10.91423 2.54176,16.15661 7.0195,-2.63565 14.3125,-8.44332 13.01484,-16.82329 -0.38278,-6.0153 0.76512,-12.72901 -0.55315,-18.31746 -6.75965,-4.82678 -10.1438,-13.02059 -8.94614,-21.21541 1.38737,-5.76911 -6.3484,-2.20651 -9.78794,-3.01275 -6.91409,-0.081 -14.0224,0.9128 -20.81238,0.31594 -4.88855,-1.12228 -2.87532,-8.97654 1.9756,-7.69479 7.36683,-0.37796 14.80034,-0.0217 22.12174,-0.90009 -8.71131,-6.15294 -18.20446,-11.38126 -26.61487,-17.82602 -3.61406,-2.15081 3.52448,-8.129522 0.22187,-8.360585 -14.86975,2.475093 -29.75458,-1.803718 -44.64762,-2.371487 -29.90666,-2.325765 -60.63908,-4.675599 -89.97886,3.116457 -24.771133,6.597625 -46.148866,21.339955 -66.564545,36.276375 -22.377997,2.07736 -45.7191179,3.85496 -66.368048,13.6055 5.204912,0.60254 11.104818,-1.38057 15.83684,0.9813 3.6865304,4.52313 -2.006339,8.28385 -6.118782,9.05308 -7.256102,3.54414 -15.247871,3.58215 -23.155066,3.49676 -4.073753,0.0281 -5.31231,6.4693 -5.226785,9.97456 0.785068,7.79702 -1.405069,16.24781 1.831491,23.55577 5.472805,4.5467 13.50764,2.64265 20.161737,3.45306 1.028983,0.009 2.057967,0.0185 3.08695,0.0277 z"
       id="path2" /></g></svg>
