<?xml version="1.0" encoding="UTF-8" standalone="no"?>
<!-- Generator: Adobe Illustrator 22.0.1, SVG Export Plug-In . SVG Version: 6.00 Build 0)  -->

<svg
   version="1.1"
   id="Layer_1"
   x="0px"
   y="0px"
   viewBox="0 0 30 30"
   style="enable-background:new 0 0 30 30;"
   xml:space="preserve"
   xmlns="http://www.w3.org/2000/svg"
   xmlns:svg="http://www.w3.org/2000/svg"><defs
   id="defs1" />
<g
   id="g4"><path
     d="m 16.93,23.56 c 0,0.13 0.03,0.26 0.1,0.38 0.14,0.22 0.31,0.37 0.51,0.44 0.11,0.03 0.21,0.05 0.3,0.05 0.09,0 0.2,-0.02 0.32,-0.08 0.21,-0.09 0.35,-0.28 0.42,-0.57 l 1.44,-5.67 c 0.03,-0.14 0.05,-0.23 0.05,-0.27 0,-0.15 -0.05,-0.3 -0.16,-0.45 -0.11,-0.15 -0.26,-0.26 -0.46,-0.32 -0.17,-0.02 -0.26,-0.03 -0.26,-0.03 -0.17,0 -0.33,0.05 -0.47,0.15 -0.14,0.1 -0.24,0.25 -0.3,0.45 l -1.46,5.7 c 0,0.02 0,0.05 -0.01,0.11 -0.02,0.05 -0.02,0.08 -0.02,0.11 z"
     id="path4"
     style="fill:#32a4f0;fill-opacity:1" /><path
     d="m 12.77,26.62 c 0,0.39 0.19,0.65 0.58,0.77 0.01,0 0.05,0 0.11,0.01 0.06,0.01 0.11,0.01 0.14,0.01 0.17,0 0.33,-0.05 0.49,-0.15 0.16,-0.1 0.27,-0.26 0.32,-0.48 l 2.25,-8.69 c 0.06,-0.24 0.04,-0.45 -0.07,-0.65 -0.11,-0.19 -0.27,-0.32 -0.5,-0.39 -0.17,-0.02 -0.26,-0.03 -0.26,-0.03 -0.16,0 -0.32,0.05 -0.47,0.15 -0.15,0.1 -0.26,0.25 -0.31,0.45 l -2.26,8.72 c -0.01,0.1 -0.02,0.19 -0.02,0.28 z"
     id="path3"
     style="fill:#32a4f0;fill-opacity:1" /><path
     d="M 8.2,21.67 C 7.14,21.35 6.28,20.75 5.62,19.88 4.96,19.01 4.63,18.02 4.63,16.91 c 0,-1.15 0.36,-2.2 1.08,-3.1 0.72,-0.9 1.63,-1.47 2.74,-1.73 0.31,-1.37 1.01,-2.49 2.1,-3.36 1.09,-0.87 2.35,-1.31 3.76,-1.31 1.38,0 2.61,0.43 3.68,1.27 1.07,0.84 1.78,1.93 2.11,3.26 h 0.31 c 0.9,0 1.73,0.22 2.5,0.66 0.76,0.44 1.37,1.04 1.81,1.8 0.45,0.76 0.67,1.59 0.67,2.49 0,1.34 -0.46,2.49 -1.39,3.45 -0.93,0.96 -2.06,1.47 -3.39,1.51 -0.13,0 -0.2,-0.06 -0.2,-0.17 v -1.37 c 0,-0.12 0.07,-0.18 0.2,-0.18 0.87,-0.07 1.61,-0.42 2.2,-1.04 0.59,-0.62 0.89,-1.36 0.89,-2.21 0,-0.88 -0.33,-1.65 -0.97,-2.28 -0.64,-0.63 -1.41,-0.95 -2.32,-0.95 h -1.6 c -0.12,0 -0.18,-0.06 -0.18,-0.17 L 18.56,12.9 c -0.12,-1.08 -0.58,-1.99 -1.4,-2.72 -0.81,-0.73 -1.76,-1.1 -2.85,-1.1 -1.09,0 -2.04,0.37 -2.85,1.1 -0.81,0.73 -1.26,1.64 -1.37,2.72 l -0.07,0.51 c 0,0.12 -0.07,0.18 -0.2,0.18 l -0.53,0.07 c -0.83,0.1 -1.53,0.46 -2.1,1.07 -0.57,0.62 -0.85,1.34 -0.85,2.17 0,0.75 0.23,1.42 0.7,2.01 0.47,0.59 0.9113011,1.035762 1.7809851,1.142156 L 8.81,20.07"
     id="path2"
     style="fill:#454b57;fill-opacity:1" /><path
     d="m 8.2,21.67 -0.66,1.68 c -0.03,0.14 0.02,0.22 0.14,0.22 h 2.13 l -0.98,4.3 h 0.28 l 3.92,-5.75 c 0.04,-0.04 0.04,-0.09 0.01,-0.14 -0.03,-0.05 -0.08,-0.07 -0.15,-0.07 h -2.18 l 2.48,-4.64 c 0.07,-0.14 0.02,-0.22 -0.14,-0.22 h -2.94 c -0.09,0 -0.17,0.05 -0.23,0.15 l -1.07,2.87"
     id="path1"
     style="fill:#f6d100;fill-opacity:1" /></g>
</svg>
